<?xml version="1.0" encoding="UTF-8"?>
<svg id="Ebene_2" data-name="Ebene 2" xmlns="http://www.w3.org/2000/svg" viewBox="0 0 800 464.2">
  <defs>
    <style>
      .cls-1 {
        fill: #fff;
      }
    </style>
  </defs>
  <g id="Ebene_1-2" data-name="Ebene 1">
    <path class="cls-1" d="M800,451.71c-24.1,9.11-51.2-1.19-63.17-24l-115-159.03-16.67-22.23-133.43,181.47c-11.24,21.85-36.96,31.95-60.07,23.6l171.93-230.67L423.67,12.48c23.7-8.54,50.15.73,63.33,22.2l119.2,161,119.87-160.33c11.34-21.47,36.96-31.05,59.6-22.27l-62.07,82.37-84.07,109.43c-9.15,8.16-9.95,22.2-1.79,31.34.56.63,1.16,1.23,1.79,1.79l160.13,213.73.33-.03ZM.07,217.98l14-69.17C52.53,12.05,209.33-44.85,317.2,39.81c63.17,49.63,78.93,119.9,75.83,199.1H37.2c-5.77,141.43,96.3,226.83,226.8,183.2,42.97-15.47,75.3-51.48,86.07-95.87,6.9-22.2,18.27-26,39.13-19.6-7.05,54.86-38.85,103.47-86.3,131.9-79.36,43.41-177.63,30.86-243.53-31.1-31.77-35.75-50.96-80.92-54.67-128.6,0-7.83-2.67-15.17-4.47-22.2C.07,243.77,0,230.89,0,218.01l.07-.03ZM37.63,208.45h321.8c-2-102.53-66.7-175.27-153-175.93-96.07-1.33-164.8,69.8-169.03,175.47l.23.47Z"/>
  </g>
</svg>